<?xml version="1.0" encoding="UTF-8"?>
<svg id="uuid-808e8156-95f1-4d75-9531-08f33231efc1" data-name="Layer 1" xmlns="http://www.w3.org/2000/svg" viewBox="0 0 2000 2000">
  <defs>
    <style>
      .uuid-9a0e1e9c-62f3-4ccf-b7e7-d9c4520a870f {
        stroke-width: 0px;
      }
    </style>
  </defs>
  <g>
    <path class="uuid-9a0e1e9c-62f3-4ccf-b7e7-d9c4520a870f" d="m1935.89,786.75c0-27.65-22.41-50.06-50.06-50.06H111.06c-27.65,0-50.06,22.41-50.06,50.06v229.81h93.29v693.98h236.64v-693.98h1217.31v693.98h236.64v-693.98h91.01v-229.81Z"/>
    <path class="uuid-9a0e1e9c-62f3-4ccf-b7e7-d9c4520a870f" d="m1326.95,369.32c-13.61-84.63-86.64-146.85-172.35-146.85h-313.05c-85.39,0-158.25,61.77-172.21,146.01l-50.87,306.79h757.69l-49.2-305.94Z"/>
    <path class="uuid-9a0e1e9c-62f3-4ccf-b7e7-d9c4520a870f" d="m1455.09,1144.81c-12.11-41.67-54.8-66.17-97.02-56.14-237.2,56.32-484.32,56.32-721.53,0-42.22-10.02-84.92,14.47-97.02,56.14l-.46,1.57c-12.99,44.7,14.29,90.91,59.59,101.67,119.54,28.39,241.37,43.67,363.39,46.17v150.52c-72.36,9.3-225.77,38.98-277.55,126.53-32.56,7.26-56.93,36.27-56.93,71.02,0,40.21,32.6,72.81,72.81,72.81s72.81-32.6,72.81-72.81c0-16.86-5.79-32.34-15.41-44.68,37.39-41.79,134.19-66.73,204.26-77.01v60.08c-20.48,12.89-34.13,35.63-34.13,61.61,0,40.21,32.6,72.81,72.81,72.81s72.81-32.6,72.81-72.81c0-25.98-13.65-48.72-34.13-61.61v-61.73c67.83,8.74,168.58,32.51,211.4,73.66-12.17,13.01-19.68,30.45-19.68,49.67,0,40.21,32.6,72.81,72.81,72.81s72.81-32.6,72.81-72.81c0-30.74-19.08-56.97-46.01-67.65-52.76-95.43-224.84-123.83-291.33-131.33v-149.18c119.74-2.92,239.25-18.21,356.56-46.07,45.29-10.75,72.57-56.96,59.58-101.67-.15-.52-.3-1.05-.46-1.57Z"/>
  </g>
</svg>